/* XPM */
static char *dc8d154c5f5945e6d644158fc00a53ccsLley149Nw7V1H1R[] = {
/* columns rows colors chars-per-pixel */
"32 32 7 1 ",
"  c None",
". c #161922",
"X c #865109",
"o c #8B6614",
"O c #AE7A32",
"+ c #BEA830",
"@ c #EAC858",
/* pixels */
"                                ",
"                                ",
"                                ",
"                                ",
"                                ",
"                                ",
"                                ",
"                                ",
"                                ",
"                                ",
"                                ",
"                                ",
"                                ",
"                                ",
"                                ",
"         ...............        ",
"         .o+@+@@@@@@@+o.        ",
"         ..OOOOOOOOOXX..        ",
"          .OOOOOOOOOXX.         ",
"          .OOO....OOXX.         ",
"         ..OOO....OOXX..        ",
"         .o+@@@..@@+@+o.        ",
"         ..OOOOOOOOOXX..        ",
"          .OOOO..OOOXX.         ",
"          .OOOO..OOOXX.         ",
"         ..OO..OO..OXX..        ",
"         .o+...@@...@+o.        ",
"         ..O..OOOO..XX..        ",
"          .OOOOOOOOOXX.         ",
"          .OOOOOOOOOXX.         ",
"         ..OOOOOOOOOXX..        ",
"         .o+@@@@@@@+@+o.        "
};
