/* XPM */
static char *_55634e111324a67aeaf944fb233c9823NezKB6rkFXlh3oM[] = {
/* columns rows colors chars-per-pixel */
"32 32 10 1 ",
"  c None",
". c black",
"X c #16181E",
"o c #2A3041",
"O c #333B51",
"+ c #506275",
"@ c #8D1313",
"# c red",
"$ c #89A7B6",
"% c white",
/* pixels */
"                                ",
"                                ",
"                                ",
"                          %     ",
"                         %#%    ",
"                       %%%o%    ",
"             %%%%%%%%%%%.%.%%%% ",
"             %................% ",
"             %.OOOOOOOOoooOo..% ",
"             %.OXXXXXXXXXXXX..% ",
"  %%%%%%%%%%%%.O##X##X#X#X#X..% ",
"  %............O#XX##XX#XX#X..% ",
"  %.OOOOOOoOo..OXXXXXXXXXXXX..% ",
" %%.O##XXX##X..oX#####X#X##X..% ",
" %..O#X###X#X..OXXXXXXXXXXXX..% ",
" %..OXX###XXX..oX#####X##X#X..% ",
" %..O#XX#XX#X..oXXXXXXXXXXXX..% ",
" %%.o##XXX##X..oX#X#XXXXXXXX..% ",
"  %.oXXXXXXXX..OXXXXXXXXXXXX..% ",
"  %...........................% ",
"  %%%%%%%%%%.OOOOOOOOOOOO.%%%%% ",
"          %.+X@X#XXXXX+OO.%     ",
"       %%%.+X@X@XX@XX+OOO.%     ",
"       %..+X@X@XXXXX+OOOO.%%%   ",
"    %%%%.$+$$$$$$$$+$$......%   ",
"   %.....+++++++++++++OOOOo.%   ",
"  %.XXX@@+++++++++OOOoOOOOo.%   ",
" %.XXX@@.+++++++++O+++OOOOo.%   ",
" %.O@X@X.oOOOOOOOOO+++OOOOo.%   ",
" %.X@X@X.+++++++O+++++OOOOo.%   ",
" %.X@X@X.+++++++o+++++OOOOo.%   ",
" %.XOXOX....................%   "
};
