/* XPM */
static char *d45b84b4c7254d97f72b9c33d9919550CmwBnU84FkP7BHe7[] = {
/* columns rows colors chars-per-pixel */
"32 32 246 2 ",
"   c None",
".  c #09060B",
"X  c #0B070A",
"o  c #0A060B",
"O  c #0A070B",
"+  c #0B070B",
"@  c #0C060B",
"#  c #0C070B",
"$  c #0A060C",
"%  c #0A070C",
"&  c #0B070C",
"*  c #0B060D",
"=  c #0B070D",
"-  c #0C070C",
";  c #0D070C",
":  c #0C060D",
">  c #0C070D",
",  c #0D070D",
"<  c #0C060E",
"1  c #0C070E",
"2  c #0D070E",
"3  c #0D070F",
"4  c #0B080A",
"5  c #0B080B",
"6  c #0C080B",
"7  c #0B080C",
"8  c #0B080D",
"9  c #0C080C",
"0  c #0C080D",
"q  c #0D080D",
"w  c #0E080D",
"e  c #0F090D",
"r  c #0C080E",
"t  c #0D080E",
"y  c #0D090E",
"u  c #0D080F",
"i  c #0E080E",
"p  c #0E080F",
"a  c #0F0A0E",
"s  c #10090E",
"d  c #100A0E",
"f  c #0E0810",
"g  c #120B10",
"h  c #77350C",
"j  c #542723",
"k  c #5B2722",
"l  c #5A2822",
"z  c #5B2822",
"x  c #5D2821",
"c  c #5C2922",
"v  c #5C2823",
"b  c #5F2922",
"n  c #5D2B23",
"m  c #5E2A23",
"M  c #5E2C21",
"N  c #5E2C22",
"B  c #5F2B24",
"V  c #5A2C24",
"C  c #5D2D24",
"Z  c #5F2C25",
"A  c #5E2D25",
"S  c #5F3E3B",
"D  c #5F3D3C",
"F  c #5F3E3C",
"G  c #602D25",
"H  c #612C26",
"J  c #602D26",
"K  c #642F26",
"L  c #642F27",
"P  c #662F27",
"I  c #643622",
"U  c #653027",
"Y  c #693127",
"T  c #6C3827",
"R  c #693228",
"E  c #693329",
"W  c #6A3628",
"Q  c #6F3928",
"!  c #6E392B",
"~  c #6D3A2A",
"^  c #6E3B2B",
"/  c #713726",
"(  c #713827",
")  c #7A3F26",
"_  c #733B28",
"`  c #733C29",
"'  c #713C2B",
"]  c #703D2B",
"[  c #713D2B",
"{  c #723C2A",
"}  c #723C2B",
"|  c #743C29",
" . c #743D29",
".. c #763E29",
"X. c #773F29",
"o. c #743D2A",
"O. c #753D2A",
"+. c #763D2A",
"@. c #743E2B",
"#. c #773E2A",
"$. c #763E2B",
"%. c #71392D",
"&. c #733B2C",
"*. c #743C2C",
"=. c #773C2D",
"-. c #773E2C",
";. c #783F29",
":. c #603D39",
">. c #603C3A",
",. c #603D3B",
"<. c #623D3B",
"1. c #613E3A",
"2. c #623E3A",
"3. c #653F3B",
"4. c #623F3C",
"5. c #784129",
"6. c #7A4129",
"7. c #78402A",
"8. c #7A402B",
"9. c #7B422B",
"0. c #7C4328",
"q. c #7C4229",
"w. c #7F4329",
"e. c #7D422A",
"r. c #7D432A",
"t. c #7C422B",
"y. c #7E422A",
"u. c #7E432A",
"i. c #7F432A",
"p. c #7F4528",
"a. c #7E4429",
"s. c #7B432C",
"d. c #7C412D",
"f. c #7D422C",
"g. c #61403D",
"h. c #63403D",
"j. c #66403C",
"k. c #804627",
"l. c #834328",
"z. c #80422A",
"x. c #814428",
"c. c #834629",
"v. c #834729",
"b. c #80442A",
"n. c #81442A",
"m. c #80452A",
"M. c #81452A",
"N. c #80452B",
"B. c #82452B",
"V. c #80462B",
"C. c #83462A",
"Z. c #84462A",
"A. c #84472A",
"S. c #87472B",
"D. c #81462C",
"F. c #82472C",
"G. c #82472D",
"H. c #82472E",
"J. c #86482A",
"K. c #86482B",
"L. c #87482B",
"P. c #87492B",
"I. c #874A2D",
"U. c #86492E",
"Y. c #88492B",
"T. c #894A2A",
"R. c #884A2B",
"E. c #894A2B",
"W. c #8A4B2B",
"Q. c #88492D",
"!. c #884A2C",
"~. c #894C2D",
"^. c #894C2E",
"/. c #8C4C2D",
"(. c #8D4C2D",
"). c #8A4B30",
"_. c #A45E30",
"`. c #A7602F",
"'. c #A9602F",
"]. c #A8612F",
"[. c #AB622F",
"{. c #A56030",
"}. c #A56131",
"|. c #A76031",
" X c #A56132",
".X c #A76333",
"XX c #A96130",
"oX c #A86031",
"OX c #A86131",
"+X c #A96131",
"@X c #AA6130",
"#X c #AB6130",
"$X c #AB6031",
"%X c #AA6131",
"&X c #AB6131",
"*X c #A96231",
"=X c #AA6230",
"-X c #AB6230",
";X c #AB6330",
":X c #AA6231",
">X c #AB6231",
",X c #AA6331",
"<X c #AB6331",
"1X c #A86132",
"2X c #A96132",
"3X c #AA6132",
"4X c #AB6132",
"5X c #A96232",
"6X c #A96233",
"7X c #AA6232",
"8X c #AB6232",
"9X c #AA6332",
"0X c #AB6332",
"qX c #AA6233",
"wX c #AB6233",
"eX c #AA6333",
"rX c #AB6333",
"tX c #AC6130",
"yX c #AC6131",
"uX c #AC6230",
"iX c #AC6330",
"pX c #AC6231",
"aX c #AD6331",
"sX c #AC6132",
"dX c #AD6232",
"fX c #AC6332",
"gX c #AB6430",
"hX c #AC6432",
"jX c #AF6636",
"kX c #D29D77",
"lX c #D19F77",
"zX c #E6B783",
"xX c #E5B784",
"cX c #E6B784",
"vX c #E6B884",
"bX c #E6B984",
"nX c #E6B885",
"mX c #E7B885",
"MX c #E6B985",
"NX c #E7B985",
"BX c #E6BA86",
"VX c #E8BC8A",
"CX c #E9BC8A",
"ZX c #E8BD8A",
"AX c #E9BD8A",
"SX c #E9BD8B",
/* pixels */
"                                                                ",
"                                                                ",
"                                                                ",
"                                                                ",
"                                                                ",
"                                f 9 9               f 9 >       ",
"                              f <.<.S &           d D D D &     ",
"                              3 <.<.<.7 9 f 9 9 9 9 4.4.4.3     ",
"                              3 3.~ Q _ $XfX_.fX6X&.{ ^ h.>     ",
"                              g h.&._.fX_._.fX_.6X6X6X_ V 6     ",
"                            > > } 6X$X_.fXfX[.6X6X_.fX[._ C o   ",
"                            9 k [.6X6XfX6X6X6X$X6X6X6X$X6XL &   ",
"        > 9                 & B 6X_.fXs $X6X[.6XfXfXd dX6XK o   ",
"      9 5..X>               > B fX6X6Xs fX6X6X6X_.fXs _.[.U 7   ",
"    > Q |.^.7         7 7 9 3 B 6X6X6Xs 6X6Xf.y.fXfXd fX6XU &   ",
"    & l.|.|.7     7 7 f.rXfX9 B [.[.$X$X6X6X9.l.fX_.[.fXfXK &   ",
"    & l.|.W >   > B f.fX6XfX# G O.6XfX6X6XfXfX6XfX_.6XfX_ j o   ",
"    7 G.p.>   > T S._.fX6XfXq.# H ;.fX6X6X6X6X[.fXfX6X=.H &     ",
"    9 Z.B.9   # l.6XdXfX[.fXfXk & L O.y.y.p.p.y.l.y.L C 9       ",
"    7 L.L.> 6 _ [.6X_.fXfX_.6X) 5.> & k k k k l k k > >         ",
"    7 R T.> > O.6XfX6X6X6XW.6XfX6X;.;.R R k.B.p.I h 9           ",
"      > / M > O.6X6X6XS.S.[.6XfX6X6XfXB.Z.Z.[.p.B.G.9           ",
"      9 / G > O.6X6XfX[.tXfX6XfXfX6XfXfXfX$X6X[.fX[.9           ",
"        9 > > H Z.fX6XfX6XfXfXfX[.G._.fX[.zXzXzXfX[.d           ",
"            > > G.fX6X6XfXfXhX6X6XB.fXfXfXcXcXmX_.dXg           ",
"              > { /.fXfXVXVXVXVXfXl.6X6XcXBXcXBX[.S.6           ",
"              > O._ *.fXVXVXkXkX5.# 6X6Xf.BXBXjXT.T.>           ",
"              > O.O.O.& 6 ) 4 # o > 6XrXT.I.7 W.W.T.>           ",
"              > _.-.[.> > [.Z.L.9 > fXT.W.I.> /.W.&.9           ",
"                # > > # > > 9 >     > & # > > # > >             ",
"                                                                ",
"                                                                "
};
